<?xml version="1.0" encoding="utf-8"?>
<!-- Generator: Adobe Illustrator 19.0.0, SVG Export Plug-In . SVG Version: 6.00 Build 0)  -->
<svg version="1.1" id="Capa_1" xmlns="http://www.w3.org/2000/svg" xmlns:xlink="http://www.w3.org/1999/xlink" x="0px" y="0px"
	 viewBox="0 0 300 300" style="enable-background:new 0 0 300 300;" xml:space="preserve">
<style type="text/css">
	.st0{fill:none;stroke:#000000;stroke-width:4;stroke-miterlimit:10;}
	.st1{fill:none;stroke:#000000;stroke-width:3;stroke-miterlimit:10;}
	.st2{fill:none;stroke:#000000;stroke-width:2;stroke-miterlimit:10;}
	.st3{fill:none;stroke:#000000;stroke-width:4;stroke-linecap:round;stroke-miterlimit:10;}
	.st4{fill:none;stroke:#000000;stroke-width:4.2613;stroke-linecap:round;stroke-miterlimit:10;}
	.st5{fill:none;stroke:#000000;stroke-width:4.4333;stroke-linecap:round;stroke-miterlimit:10;}
	.st6{fill:none;stroke:#000000;stroke-width:4.3121;stroke-linecap:round;stroke-miterlimit:10;}
	.st7{fill:none;stroke:#000000;stroke-width:4.4862;stroke-linecap:round;stroke-miterlimit:10;}
	.st8{fill:#FFFFFF;}
</style>
<g id="XMLID_1_">
	<path id="XMLID_243_" class="st0" d="M293.4,152.3c-31.4,45.6-83.9,75.5-143.4,75.5S37.9,197.9,6.6,152.3
		C37.9,106.7,90.5,76.8,150,76.8S262.1,106.7,293.4,152.3z"/>
	<circle id="XMLID_182_" class="st1" cx="150" cy="151.5" r="50.3"/>
	<circle id="XMLID_183_" class="st2" cx="150" cy="151.5" r="33"/>
	<circle id="XMLID_184_" cx="150" cy="151.5" r="11.6"/>
	<line id="XMLID_185_" class="st3" x1="149" y1="52" x2="149" y2="10"/>
	<line id="XMLID_235_" class="st4" x1="171" y1="51.2" x2="205" y2="12.6"/>
	<line id="XMLID_237_" class="st5" x1="130" y1="51.2" x2="96" y2="12.6"/>
	<line id="XMLID_240_" class="st3" x1="149" y1="291" x2="149" y2="248"/>
	<line id="XMLID_242_" class="st6" x1="171" y1="247.8" x2="205" y2="287.3"/>
	<line id="XMLID_241_" class="st7" x1="130" y1="247.8" x2="96" y2="287.3"/>
	<circle id="XMLID_236_" class="st8" cx="132.3" cy="136.9" r="17.3"/>
</g>
</svg>
